<?xml version="1.0" encoding="UTF-8" standalone="no"?>
<!-- Created with Inkscape (http://www.inkscape.org/) -->

<svg
   width="205.66829mm"
   height="177.91019mm"
   viewBox="0 0 205.66829 177.91019"
   version="1.1"
   id="svg5"
   inkscape:version="1.1 (c68e22c387, 2021-05-23)"
   sodipodi:docname="fuca-logo.svg"
   xmlns:inkscape="http://www.inkscape.org/namespaces/inkscape"
   xmlns:sodipodi="http://sodipodi.sourceforge.net/DTD/sodipodi-0.dtd"
   xmlns="http://www.w3.org/2000/svg"
   xmlns:svg="http://www.w3.org/2000/svg">
  <sodipodi:namedview
     id="namedview7"
     pagecolor="#ffffff"
     bordercolor="#666666"
     borderopacity="1.0"
     inkscape:pageshadow="2"
     inkscape:pageopacity="0.0"
     inkscape:pagecheckerboard="0"
     inkscape:document-units="mm"
     showgrid="false"
     fit-margin-top="0"
     fit-margin-left="0"
     fit-margin-right="0"
     fit-margin-bottom="0"
     inkscape:zoom="0.67081229"
     inkscape:cx="726.73087"
     inkscape:cy="286.96552"
     inkscape:window-width="1920"
     inkscape:window-height="1016"
     inkscape:window-x="1920"
     inkscape:window-y="27"
     inkscape:window-maximized="1"
     inkscape:current-layer="layer1" />
  <defs
     id="defs2" />
  <g
     inkscape:label="Layer 1"
     inkscape:groupmode="layer"
     id="layer1"
     transform="translate(339.21996,-33.007692)">
    <circle
       style="fill:#f5ae20;fill-opacity:1;stroke-width:0.405178"
       id="path11115"
       cx="-237.09479"
       cy="96.656303"
       r="54.432526" />
    <path
       style="fill:#4a4a4c;fill-opacity:1;stroke-width:0.255399"
       d="m -288.81666,207.53225 c 0.6503,-0.2267 0.87772,-0.2267 0.95329,0 0.0593,0.17783 0.65629,0.29772 1.48265,0.29772 h 1.38341 l -0.004,-4.15023 c -0.003,-2.82548 -0.10659,-4.35405 -0.3259,-4.78874 -0.45166,-0.89519 -1.70846,-1.24591 -4.52291,-1.26218 -2.81083,-0.0162 -4.03621,0.42508 -4.41451,1.58986 -0.38111,1.17339 -0.10293,1.46011 1.41659,1.46011 1.31385,0 1.36817,-0.0281 1.60426,-0.83004 0.21863,-0.74264 0.35536,-0.83816 1.29841,-0.90705 1.37225,-0.10024 1.88304,0.39909 1.88304,1.8408 v 1.08882 l -1.98142,-0.11471 c -3.27429,-0.18954 -4.40356,0.582 -4.40356,3.00857 0,1.46579 0.40493,2.2773 1.3389,2.6832 1.02004,0.44332 3.14145,0.48477 4.2915,0.0839 z m -2.16428,-1.38061 c -0.22612,-0.22613 -0.40134,-0.83143 -0.40134,-1.38646 0,-1.21537 0.53154,-1.7878 1.66009,-1.7878 1.12856,0 1.66009,0.57243 1.66009,1.7878 0,1.21537 -0.53153,1.78779 -1.66009,1.78779 -0.47157,0 -1.03801,-0.1806 -1.25875,-0.40133 z m 15.18963,1.38061 c 0.6503,-0.2267 0.87772,-0.2267 0.95328,0 0.0593,0.17783 0.65629,0.29772 1.48266,0.29772 h 1.38341 v -5.10798 -5.10798 h -1.5324 -1.53239 v 4.163 c 0,2.89736 -0.0932,4.25619 -0.30648,4.46948 -0.16856,0.16857 -0.77768,0.30648 -1.35361,0.30648 -0.57592,0 -1.18506,-0.13791 -1.35361,-0.30648 -0.2133,-0.21329 -0.30648,-1.57212 -0.30648,-4.46948 v -4.163 h -1.5324 -1.53239 v 4.06975 c 0,2.23837 0.11405,4.36975 0.25346,4.7364 0.14092,0.37066 0.62284,0.82717 1.08544,1.02822 1.02004,0.44332 3.14145,0.48477 4.29151,0.0839 z m 11.48132,-4.17176 V 198.891 h 0.89389 c 0.78323,0 0.89391,-0.079 0.89391,-0.63849 0,-0.55777 -0.11149,-0.6385 -0.88172,-0.6385 h -0.88171 l -0.0761,-1.59624 -0.0761,-1.59625 -1.46854,-0.0766 -1.46855,-0.0767 v 1.67285 1.67283 h -0.89389 c -0.78323,0 -0.8939,0.0791 -0.8939,0.6385 0,0.55945 0.11067,0.6385 0.8939,0.6385 h 0.89389 v 4.46948 4.46949 h 1.5324 1.53239 z m 12.6666,3.6226 c 0.58654,-0.68192 0.61415,-0.87777 0.61415,-4.35853 0,-3.5876 -0.0103,-3.65419 -0.65908,-4.26368 -0.62688,-0.58892 -0.81928,-0.61918 -3.9381,-0.61918 -3.11884,0 -3.31124,0.0302 -3.93811,0.61918 -0.65041,0.61103 -0.65907,0.6684 -0.65907,4.36604 0,3.26068 0.0587,3.79999 0.4522,4.15612 0.85749,0.77603 1.72761,0.9415 4.61627,0.87787 2.82075,-0.0622 2.91387,-0.0827 3.51174,-0.77782 z m -5.06848,-0.70598 c -0.38932,-0.22675 -0.44694,-0.68751 -0.44694,-3.57329 0,-3.25809 0.0102,-3.31764 0.61895,-3.59498 0.34913,-0.15908 1.01714,-0.20731 1.53239,-0.11065 l 0.91344,0.17136 v 3.53422 c 0,3.44923 -0.0138,3.53794 -0.57465,3.68823 -0.8298,0.22238 -1.53193,0.1829 -2.04319,-0.11489 z m 12.63607,-2.71918 0.07,-4.27205 0.70235,-0.24673 c 0.45181,-0.15873 0.95289,-0.15873 1.4047,0 l 0.70234,0.24673 0.07,4.27205 0.07,4.27204 h 1.52622 1.52621 v -4.06814 c 0,-3.35778 0.0701,-4.13822 0.40135,-4.46949 0.46032,-0.4603 1.44865,-0.5227 2.16943,-0.13695 0.45771,0.24496 0.49401,0.57342 0.49401,4.46948 v 4.2051 h 1.54886 1.54885 l -0.0803,-4.46304 c -0.0751,-4.17256 -0.11612,-4.49882 -0.63055,-5.01264 -0.7655,-0.76459 -3.70136,-0.98884 -4.98309,-0.38061 -0.80476,0.38188 -0.96198,0.38505 -1.63714,0.033 -0.86278,-0.44993 -3.3204,-0.51824 -4.36439,-0.12131 -0.50371,0.19151 -0.74027,0.19151 -0.80411,0 -0.0497,-0.14923 -0.71298,-0.27134 -1.47385,-0.27134 h -1.38341 v 5.10799 5.10798 h 1.52622 1.52621 z m 23.55437,3.91056 c 0.47583,-0.19881 0.98933,-0.59351 1.1411,-0.87711 0.1589,-0.29691 0.27595,-1.99015 0.27595,-3.99191 0,-3.32414 -0.0267,-3.50298 -0.60996,-4.08625 -0.77617,-0.77617 -1.85726,-0.97337 -4.72172,-0.86127 -1.84163,0.0721 -2.43572,0.19577 -3.01434,0.62765 l -0.72064,0.53791 -0.0709,3.61597 c -0.0783,3.99537 0.0467,4.47722 1.30414,5.02418 1.09955,0.4783 5.28066,0.48536 6.41635,0.0108 z m -4.28869,-1.23726 c -0.38416,-0.28089 -0.43088,-0.74208 -0.36807,-3.63368 l 0.0719,-3.31194 0.70235,-0.24661 c 0.45153,-0.15854 0.95315,-0.15854 1.40469,0 l 0.70235,0.24661 0.0717,3.27882 c 0.0481,2.19943 -0.0253,3.39564 -0.22283,3.63368 -0.3674,0.4427 -1.77501,0.46244 -2.36212,0.0331 z m 16.63167,-3.06229 c 1.00038,-2.56357 1.8943,-4.86216 1.98647,-5.10799 0.14665,-0.39106 -0.004,-0.44694 -1.20716,-0.44694 h -1.37476 l -1.2246,3.70328 c -0.67353,2.03681 -1.26582,3.70329 -1.31621,3.70329 -0.0504,0 -0.64268,-1.66648 -1.31621,-3.70329 l -1.2246,-3.70328 h -1.47513 c -0.81133,0 -1.47513,0.0808 -1.47513,0.17948 0,0.0987 0.7607,2.13872 1.69045,4.53334 0.92974,2.39462 1.78888,4.61243 1.90917,4.92849 0.19243,0.50558 0.39841,0.57465 1.71377,0.57465 h 1.49505 z m 12.17532,4.29955 c 0.96087,-0.40147 1.41706,-1.06078 1.41706,-2.04802 0,-0.63064 -0.0576,-0.65529 -1.5324,-0.65529 -1.42875,0 -1.53239,0.0398 -1.53239,0.58742 0,0.80459 -0.46391,1.20037 -1.40697,1.20037 -1.21079,0 -1.60616,-0.45998 -1.70143,-1.97949 l -0.0841,-1.34101 3.12863,1.6e-4 3.12864,1.6e-4 v -1.93228 c 0,-1.06277 -0.12418,-2.16432 -0.27595,-2.44791 -0.4556,-0.85129 -1.80681,-1.23859 -4.32123,-1.23859 -2.51442,0 -3.86563,0.3873 -4.32122,1.23859 -0.36254,0.67741 -0.36291,7.06069 -5.1e-4,7.73795 0.15153,0.28313 0.63997,0.67334 1.08544,0.86711 1.09955,0.4783 5.28067,0.48536 6.41637,0.0108 z m -4.71961,-6.84833 c 0.11837,-1.17296 0.22033,-1.36559 0.83714,-1.58169 0.45011,-0.1577 0.95457,-0.1578 1.40469,-2.6e-4 0.6293,0.22024 0.71038,0.38475 0.77954,1.5817 l 0.0772,1.33589 h -1.61669 -1.61667 l 0.13478,-1.33562 z m 13.28783,2.10183 v -5.10798 h -1.53239 -1.53239 v 5.10798 5.10798 h 1.53239 1.53239 z m 12.13893,4.70422 c 0.89371,-0.4241 1.39722,-1.39078 1.39722,-2.68251 0,-1.95672 -1.14473,-2.78791 -3.83957,-2.78791 -2.02488,0 -2.5454,-0.28536 -2.5454,-1.39544 0,-1.41238 0.87801,-1.94025 2.50315,-1.50497 0.38482,0.10308 0.63829,0.41043 0.73428,0.89041 0.13936,0.69677 0.21373,0.733 1.50429,0.733 0.74674,0 1.43013,-0.11717 1.51863,-0.26038 0.0885,-0.14322 0.0324,-0.64989 -0.12472,-1.12594 -0.42335,-1.28278 -1.47471,-1.68162 -4.38644,-1.66404 -3.99852,0.0241 -4.92417,0.66369 -4.73733,3.27309 0.134,1.87135 0.7938,2.26196 3.89481,2.30581 1.02632,0.0145 1.93234,0.15724 2.10704,0.33194 0.4399,0.4399 0.37819,2.13931 -0.0949,2.61237 -0.8909,0.89089 -2.91885,0.26982 -2.91885,-0.89391 0,-0.43174 -0.18919,-0.49255 -1.53239,-0.49255 -1.42,0 -1.53212,0.0422 -1.52863,0.57465 0.007,0.98794 0.61274,1.83951 1.53529,2.15647 1.34821,0.46321 5.4834,0.41871 6.51348,-0.0701 z m -46.70803,-11.75046 c 0.54127,-0.64464 1.02245,-1.27675 1.06928,-1.4047 0.0468,-0.12795 -0.56064,-0.23262 -1.34992,-0.23262 h -1.43505 l -0.50173,1.17047 c -0.66531,1.55209 -0.64593,1.63891 0.36577,1.63891 0.71741,0 1.03777,-0.20278 1.85165,-1.17206 z m 34.71033,0.39091 c 0.96186,-1.06283 -0.66847,-2.07832 -2.47006,-1.53855 -0.79517,0.23824 -0.99135,0.41884 -0.99135,0.91257 0,0.77682 0.60577,1.13406 1.93975,1.14396 0.73835,0.006 1.18576,-0.14682 1.52166,-0.51798 z m -97.95902,-11.7334 v -5.87418 h 3.19248 3.19249 v -1.53239 -1.53239 h -3.19249 -3.19248 v -4.33871 -4.33872 l 9.64131,-0.0669 9.64131,-0.0669 v -1.4047 -1.4047 l -14.49389,-0.0659 -14.4939,-0.0659 v 13.28285 13.28286 h 4.85259 4.85258 z m 45.74113,5.37748 c 2.77639,-1.05494 4.33661,-2.83447 4.81186,-5.48823 0.15969,-0.89171 0.2714,-5.4404 0.2714,-11.05152 v -9.53608 l -4.91643,0.0694 -4.91644,0.0694 -0.12769,10.38912 c -0.12279,9.98985 -0.14794,10.41621 -0.65428,11.09408 -0.94328,1.26283 -1.79505,1.71795 -3.43748,1.83675 -2.59636,0.1878 -4.4176,-0.79505 -5.06723,-2.73459 -0.19754,-0.58981 -0.29077,-4.04942 -0.29077,-10.79061 v -9.92245 h -4.86313 -4.86313 l 0.0744,10.66291 0.0744,10.66291 0.79314,1.39833 c 0.96552,1.70228 2.19183,2.73451 3.98409,3.35356 1.19898,0.41414 2.28609,0.46806 9.58622,0.47545 7.54959,0.008 8.34251,-0.0329 9.54108,-0.48836 z m 32.1571,-0.2907 c 2.76705,-1.29807 4.08234,-3.25374 4.16245,-6.18905 l 0.0501,-1.83482 h -4.85258 -4.85257 l -0.14334,1.6601 c -0.0809,0.93696 -0.34043,1.96056 -0.5958,2.34989 -0.68174,1.03933 -2.34575,1.73724 -4.13024,1.73229 -2.02223,-0.006 -3.35287,-0.74277 -4.14344,-2.29544 -0.57403,-1.1274 -0.58331,-1.27846 -0.5108,-8.31986 l 0.0738,-7.17161 0.68793,-0.90137 c 0.37836,-0.49574 1.08531,-1.08992 1.571,-1.32039 1.24458,-0.59061 3.58326,-0.5448 4.87546,0.0955 1.48576,0.73619 2.00102,1.57987 2.17101,3.55478 l 0.14437,1.67719 h 4.85257 4.85258 l -0.0403,-1.73698 c -0.0695,-2.99725 -1.2402,-4.77421 -4.17383,-6.33508 -1.13837,-0.60569 -1.23198,-0.61223 -9.8543,-0.68764 -8.22378,-0.0719 -8.78147,-0.0475 -10.08826,0.44177 -1.82689,0.68399 -3.02139,1.70555 -3.94583,3.37455 l -0.75761,1.3678 v 8.0516 8.0516 l 0.65335,1.27047 c 0.3956,0.76926 1.13904,1.63774 1.88453,2.20149 2.23188,1.68777 2.57657,1.73532 12.14756,1.676 l 8.55587,-0.0531 z m 16.65246,-9.64035 0.0746,-10.42775 0.68793,-0.90156 c 1.02661,-1.34542 2.21838,-1.81346 4.3159,-1.69494 1.93476,0.10933 2.7585,0.5485 3.74358,1.99588 0.5126,0.75318 0.57465,1.15739 0.57465,3.74366 v 2.89932 h -3.20523 -3.20524 l 0.0765,1.46855 0.0767,1.46854 3.12863,0.0717 3.12864,0.0717 v 5.86631 5.86632 h 4.99812 4.99812 l -0.0817,-10.4075 -0.0817,-10.40752 -0.66644,-1.40469 c -0.89883,-1.89458 -2.21046,-3.16541 -3.93164,-3.80939 -1.33701,-0.50024 -1.93533,-0.53247 -9.90539,-0.53366 -7.40549,-9.6e-4 -8.6393,0.0549 -9.71795,0.44159 -1.6331,0.58537 -2.95181,1.74985 -3.8806,3.42672 l -0.75807,1.36864 -0.0768,10.6629 -0.0768,10.66291 h 4.85477 4.85476 z m -36.19203,-22.98628 c 13.43024,-2.39462 25.05904,-8.51741 33.91576,-17.85731 l 1.02929,-1.08545 h 6.81384 c 3.74761,0 8.39242,-0.0757 10.32179,-0.16824 l 3.50794,-0.16823 3.27228,-3.5989 c 4.86582,-5.35152 11.0912,-13.06255 10.85472,-13.44517 -0.0828,-0.13396 -15.80657,-0.575 -22.01986,-0.61764 -0.597,-0.004 -1.08545,-0.0592 -1.08545,-0.12229 0,-0.0631 0.36004,-1.0688 0.8001,-2.23474 l 0.8001,-2.1199 0.92384,0.006 c 0.50811,0.003 5.2337,0.17296 10.50131,0.3774 5.2676,0.20444 10.40641,0.37426 11.41958,0.3774 l 1.84213,0.006 0.98913,-1.46854 c 2.58223,-3.83379 8.23882,-13.97189 7.93114,-14.21467 -0.36877,-0.29099 -14.97399,-1.965895 -23.71438,-2.719533 -3.58197,-0.308853 -6.65634,-0.600834 -6.83192,-0.648847 -0.22165,-0.06062 -0.31925,-0.714371 -0.31925,-2.138507 v -2.051207 h 0.76398 c 3.4969,0 27.12143,2.987786 31.36343,3.966511 0.50131,0.11567 0.66279,-0.04064 1.12151,-1.08565 0.29474,-0.671424 1.66894,-3.565984 3.0538,-6.43237 1.38486,-2.866381 2.51792,-5.297439 2.51792,-5.402353 0,-0.723512 -12.98176,-3.655834 -23.6244,-5.336285 -3.62398,-0.572219 -18.10835,-2.566185 -18.64103,-2.566185 -0.0393,0 -0.3342,-0.660845 -0.65531,-1.468544 -1.14615,-2.882934 -4.0453,-8.408358 -5.79576,-11.046006 -6.17363,-9.302843 -13.94139,-16.142085 -24.1083,-21.226716 -6.03011,-3.015751 -12.14951,-4.848936 -19.62963,-5.880429 -3.5188,-0.485235 -11.93524,-0.419235 -15.70703,0.123174 -20.38307,2.931214 -37.77716,15.501561 -46.5271,33.624151 -1.05124,2.177277 -2.00091,4.131078 -2.11037,4.341783 -0.15226,0.29305 -1.12305,0.455698 -4.13007,0.691966 -9.91015,0.778654 -21.83432,2.160126 -27.17233,3.148042 -3.32681,0.615698 -6.82164,1.356807 -8.62739,1.829509 -2.27374,0.595215 -2.21712,0.359845 -0.81223,3.376697 0.46313,0.994533 1.65121,3.747727 2.64017,6.11821 0.98896,2.370486 1.83158,4.33835 1.87249,4.373042 0.0409,0.03465 1.68339,-0.147235 3.64996,-0.404272 1.96657,-0.257027 6.27644,-0.697604 9.57747,-0.979043 5.42383,-0.462421 8.05128,-0.651115 16.57477,-1.190315 l 2.65554,-0.167999 -0.16191,0.604898 c -0.089,0.332686 -0.16348,1.304238 -0.16539,2.158991 l -0.004,1.554093 -6.32113,0.312435 c -10.10954,0.4997 -22.58495,1.40762 -23.63507,1.720084 -0.33504,0.09969 -0.41194,0.284586 -0.28707,0.690219 0.32438,1.053659 4.24417,8.739546 6.17653,12.110856 l 1.93965,3.38404 8.7011,0.023 c 4.7856,0.0127 10.30976,0.0718 12.27589,0.13164 l 3.57478,0.10867 0.5514,1.63463 c 0.30328,0.89904 0.63248,1.89006 0.73157,2.20225 l 0.18016,0.56762 -11.07443,-0.17862 c -6.09092,-0.0982 -11.27554,-0.23679 -11.52136,-0.3079 -0.24582,-0.0711 -0.44695,-0.005 -0.44695,0.14718 0,0.74018 7.41775,10.51186 11.6876,15.39652 l 2.11014,2.41397 5.16872,0.30631 c 2.84281,0.16847 7.45302,0.41169 10.24492,0.54049 l 5.07617,0.23418 2.96889,2.88486 c 3.41633,3.31961 5.59909,5.11876 8.8495,7.29423 7.75618,5.19114 16.5722,8.51687 26.17197,9.87304 3.87894,0.54798 14.15785,0.3643 18.00562,-0.32176 z m -14.04694,-8.47773 c -3.06902,-0.21985 -8.02207,-1.15626 -11.24826,-2.12658 -11.53876,-3.47039 -21.75385,-11.21973 -28.56617,-21.67076 -1.70875,-2.62146 -4.43409,-8.19551 -5.38128,-11.00621 -2.12075,-6.2931 -2.79807,-11.04404 -2.61084,-18.313117 0.1105,-4.289795 0.25521,-5.812438 0.80103,-8.428165 1.11697,-5.352948 3.17155,-10.868218 5.65753,-15.186979 1.51573,-2.633204 1.63345,-2.747214 1.63345,-1.581967 0,2.288265 0.80266,4.887134 2.65813,8.606456 1.84753,3.703438 2.32822,4.566192 6.04189,10.844179 3.70292,6.259836 8.1001,13.379963 13.8011,22.347413 0.66977,1.05353 1.65028,2.60507 2.17892,3.44789 0.52864,0.84282 1.78355,2.79662 2.78869,4.34178 10.06358,15.47043 13.37782,20.54664 15.86086,24.29307 1.59369,2.40458 2.89718,4.41584 2.89665,4.46948 -0.002,0.185 -3.70985,0.16422 -6.5117,-0.0365 z m 15.03744,-1.45224 c 0.0756,-0.2513 0.70984,-2.46819 1.40953,-4.92641 2.83932,-9.97531 4.15162,-14.7051 4.18085,-15.06853 0.0169,-0.21071 -0.83281,-1.64733 -1.88835,-3.19249 -1.05554,-1.54516 -2.8213,-4.13108 -3.92392,-5.74648 -1.10261,-1.6154 -2.22603,-3.22441 -2.49649,-3.57559 l -0.49172,-0.6385 3.53609,-0.16038 c 1.94485,-0.0882 4.88208,-0.17441 6.52718,-0.19155 l 2.99109,-0.0312 0.28773,-1.08545 c 0.59184,-2.23271 5.36982,-19.748596 5.51291,-20.210168 0.14503,-0.467749 -0.2835,-0.477991 -16.02102,-0.383103 l -16.17002,0.0975 -3.12061,-5.425719 -3.1206,-5.425713 20.43553,-0.06536 20.43554,-0.06536 3.17656,-10.34366 c 1.7471,-5.689012 3.23854,-10.516052 3.31431,-10.726756 0.0987,-0.274426 0.65937,0.160263 1.97657,1.532394 10.03445,10.452943 15.28287,24.898044 14.20576,39.098145 -0.97125,12.80448 -6.10849,23.9806 -15.09752,32.84486 -3.2215,3.17678 -4.79393,4.49093 -7.62268,6.3706 -5.55114,3.68869 -11.21566,6.15809 -17.45136,7.60779 -0.61337,0.1426 -0.70194,0.0989 -0.58536,-0.28891 z m -47.34541,-86.857577 c 0,-0.418804 4.9835,-4.48723 7.66197,-6.255069 6.15037,-4.059367 12.86379,-6.674134 20.57058,-8.011907 3.65678,-0.634755 12.26389,-0.635064 16.04792,-5.1e-4 9.83798,1.649599 19.04966,5.924631 26.04801,12.088572 l 1.20964,1.06542 -1.35406,0.135433 c -0.74472,0.07449 -16.63896,0.266848 -35.32052,0.427466 -20.09569,0.172775 -34.14965,0.390059 -34.41502,0.532076 -0.24669,0.132026 -0.44852,0.140387 -0.44852,0.01859 z"
       id="path219"
       sodipodi:nodetypes="sssccssssssscsssssssssssssscccccssssscccsssssccssscccccccsssccccccssssssssssssscsssccsscccccsssscccssscssscccccccssssscssccsscssccsssssscssscssssscssssssscccssssssssssssccccscccccccccsssssssscssssssscsssssscsssssscsccccccccccccccccccccccsscccssssscccccsscccsscccsscsscsssscccssssscccssccsccsssscccccccccccccssccscccccccscsccsscssccsccssssscsssssssscsscssssssscsssccccsssscsccsscsssscsscsssccsssssssssssssscsssscsssccscssscccccsscssssssssscscsssss" />
  </g>
</svg>
